<svg xmlns="http://www.w3.org/2000/svg" xmlns:xlink="http://www.w3.org/1999/xlink" width="500" zoomAndPan="magnify" viewBox="0 0 375 374.999991" height="500" preserveAspectRatio="xMidYMid meet" version="1.0"><defs><clipPath id="7f41924cc8"><path d="M 6.460938 11.398438 L 368.710938 11.398438 L 368.710938 363.898438 L 6.460938 363.898438 Z M 6.460938 11.398438 " clip-rule="nonzero"/></clipPath></defs><g clip-path="url(#7f41924cc8)"><path fill="#8d84e4" d="M 333.007812 11.398438 L 177.070312 11.398438 C 155.496094 17.101562 142.324219 30.179688 140.851562 53.925781 C 141 58.5 141.144531 63.070312 141.292969 67.59375 C 141.292969 75.949219 141.246094 83.71875 141.292969 91.535156 C 141.292969 103.582031 141.195312 115.675781 141.246094 127.71875 L 42.070312 127.71875 C 39.957031 128.164062 37.886719 128.75 35.855469 129.480469 C 33.820312 130.207031 31.851562 131.074219 29.941406 132.078125 C 28.027344 133.082031 26.195312 134.214844 24.441406 135.472656 C 22.6875 136.730469 21.027344 138.105469 19.464844 139.59375 C 17.898438 141.082031 16.445312 142.671875 15.101562 144.363281 C 13.761719 146.054688 12.539062 147.828125 11.441406 149.6875 C 10.347656 151.546875 9.382812 153.476562 8.554688 155.46875 C 7.722656 157.460938 7.035156 159.503906 6.488281 161.59375 L 6.488281 263.261719 C 7.070312 268.550781 8.824219 273.417969 11.75 277.863281 C 13.835938 280.761719 16.292969 283.304688 19.121094 285.488281 C 21.949219 287.671875 25.027344 289.40625 28.359375 290.695312 C 34.882812 293.828125 41.761719 295.417969 49 295.464844 L 60.351562 295.464844 L 60.351562 327.8125 C 60.648438 339.808594 60.992188 351.855469 61.285156 363.898438 C 67.085938 358.394531 72.046875 353.574219 75.929688 349.789062 C 88.117188 337.84375 94.066406 331.746094 101.4375 323.882812 C 107.679688 317.292969 107.972656 316.898438 110.921875 313.851562 C 124.386719 299.789062 127.925781 298.121094 129.746094 297.382812 C 133.417969 295.8125 137.253906 295.109375 141.246094 295.269531 C 157.855469 295.90625 174.515625 295.5625 191.175781 295.464844 C 192.585938 295.523438 194 295.511719 195.410156 295.425781 C 196.824219 295.339844 198.226562 295.179688 199.621094 294.949219 C 201.015625 294.714844 202.394531 294.414062 203.757812 294.039062 C 205.121094 293.664062 206.460938 293.21875 207.777344 292.703125 C 209.09375 292.1875 210.382812 291.605469 211.640625 290.960938 C 212.894531 290.3125 214.117188 289.597656 215.300781 288.824219 C 216.480469 288.050781 217.621094 287.214844 218.71875 286.324219 C 219.816406 285.429688 220.863281 284.480469 221.859375 283.480469 C 222.859375 282.476562 223.800781 281.425781 224.691406 280.328125 C 225.582031 279.226562 226.410156 278.085938 227.179688 276.898438 C 227.949219 275.710938 228.65625 274.488281 229.300781 273.230469 C 229.945312 271.96875 230.519531 270.679688 231.03125 269.359375 C 231.539062 268.042969 231.980469 266.699219 232.351562 265.335938 C 232.722656 263.96875 233.019531 262.589844 233.246094 261.191406 C 233.472656 259.796875 233.628906 258.390625 233.710938 256.980469 C 233.792969 255.566406 233.800781 254.15625 233.734375 252.742188 C 233.882812 237.796875 233.785156 222.800781 233.785156 207.855469 L 233.785156 183.960938 L 233.929688 178.949219 C 237.890625 178.792969 241.691406 179.496094 245.332031 181.0625 C 247.101562 181.800781 250.640625 183.421875 264.105469 197.53125 C 267.054688 200.578125 267.398438 200.972656 273.589844 207.5625 C 281.011719 215.425781 286.957031 221.523438 299.144531 233.46875 C 302.980469 237.253906 307.941406 242.074219 313.789062 247.578125 C 314.085938 235.535156 314.378906 223.507812 314.675781 211.492188 L 314.675781 179.144531 L 326.078125 179.144531 C 333.296875 179.089844 340.160156 177.5 346.667969 174.375 C 349.996094 173.085938 353.074219 171.347656 355.902344 169.164062 C 358.730469 166.980469 361.1875 164.441406 363.277344 161.542969 C 366.222656 157.085938 367.992188 152.203125 368.585938 146.894531 L 368.585938 45.273438 C 368.039062 43.183594 367.347656 41.144531 366.519531 39.152344 C 365.6875 37.160156 364.722656 35.234375 363.625 33.375 C 362.527344 31.515625 361.308594 29.742188 359.964844 28.050781 C 358.621094 26.359375 357.167969 24.773438 355.605469 23.28125 C 354.039062 21.792969 352.382812 20.421875 350.628906 19.164062 C 348.875 17.902344 347.042969 16.773438 345.132812 15.769531 C 343.222656 14.761719 341.25 13.894531 339.21875 13.164062 C 337.191406 12.433594 335.117188 11.84375 333.007812 11.398438 Z M 220.171875 252.742188 C 220.238281 253.710938 220.253906 254.683594 220.21875 255.65625 C 220.183594 256.628906 220.097656 257.597656 219.957031 258.5625 C 219.820312 259.523438 219.628906 260.476562 219.390625 261.421875 C 219.148438 262.363281 218.859375 263.292969 218.515625 264.203125 C 218.175781 265.117188 217.789062 266.007812 217.355469 266.878906 C 216.917969 267.75 216.4375 268.59375 215.914062 269.414062 C 215.386719 270.230469 214.820312 271.019531 214.210938 271.777344 C 213.597656 272.535156 212.949219 273.261719 212.261719 273.949219 C 211.574219 274.636719 210.851562 275.289062 210.097656 275.898438 C 209.339844 276.511719 208.550781 277.082031 207.734375 277.609375 C 206.914062 278.136719 206.070312 278.617188 205.203125 279.054688 C 204.332031 279.492188 203.441406 279.882812 202.53125 280.222656 C 201.621094 280.566406 200.695312 280.855469 199.75 281.097656 C 198.808594 281.34375 197.855469 281.535156 196.894531 281.675781 C 195.929688 281.816406 194.964844 281.902344 193.992188 281.941406 C 193.019531 281.976562 192.046875 281.960938 191.078125 281.894531 C 171.859375 282.042969 152.695312 282.140625 133.480469 281.796875 C 132.089844 281.722656 130.707031 281.804688 129.335938 282.042969 C 127.964844 282.277344 126.636719 282.664062 125.351562 283.203125 C 124.066406 283.738281 122.859375 284.410156 121.726562 285.21875 C 120.59375 286.027344 119.5625 286.953125 118.636719 287.992188 C 111.5625 295.269531 103.699219 301.808594 97.210938 309.625 C 89.882812 318.433594 81.824219 326.511719 73.03125 333.859375 C 73.179688 330.027344 73.71875 311.933594 73.964844 292.171875 C 74.125 290.675781 73.984375 289.210938 73.539062 287.777344 C 73.097656 286.339844 72.386719 285.054688 71.410156 283.910156 C 70.351562 283.089844 69.171875 282.503906 67.878906 282.152344 C 66.582031 281.804688 65.269531 281.71875 63.941406 281.894531 C 58.878906 282.09375 53.765625 281.992188 48.703125 281.894531 C 47.75 281.933594 46.796875 281.921875 45.84375 281.863281 C 44.890625 281.804688 43.945312 281.691406 43.003906 281.535156 C 42.058594 281.375 41.128906 281.167969 40.210938 280.910156 C 39.289062 280.65625 38.386719 280.351562 37.496094 280 C 36.609375 279.652344 35.738281 279.257812 34.894531 278.816406 C 34.046875 278.375 33.222656 277.890625 32.425781 277.363281 C 31.628906 276.839844 30.863281 276.273438 30.125 275.667969 C 29.386719 275.058594 28.679688 274.417969 28.007812 273.738281 C 27.339844 273.058594 26.703125 272.347656 26.105469 271.601562 C 25.511719 270.855469 24.953125 270.078125 24.4375 269.277344 C 23.921875 268.472656 23.445312 267.644531 23.015625 266.792969 C 22.585938 265.9375 22.203125 265.066406 21.863281 264.171875 C 21.523438 263.28125 21.230469 262.371094 20.984375 261.449219 C 20.742188 260.523438 20.542969 259.589844 20.394531 258.648438 C 20.25 257.703125 20.148438 256.753906 20.101562 255.800781 C 20.050781 254.847656 20.050781 253.890625 20.101562 252.9375 C 19.957031 225.605469 19.957031 198.234375 20.101562 170.835938 C 20.046875 169.878906 20.039062 168.925781 20.082031 167.96875 C 20.125 167.011719 20.21875 166.0625 20.359375 165.117188 C 20.5 164.167969 20.691406 163.234375 20.929688 162.304688 C 21.167969 161.378906 21.457031 160.46875 21.789062 159.570312 C 22.125 158.675781 22.503906 157.796875 22.929688 156.941406 C 23.355469 156.082031 23.824219 155.25 24.335938 154.441406 C 24.847656 153.632812 25.398438 152.851562 25.992188 152.101562 C 26.585938 151.351562 27.214844 150.632812 27.882812 149.949219 C 28.550781 149.261719 29.253906 148.613281 29.988281 148 C 30.722656 147.390625 31.488281 146.816406 32.28125 146.285156 C 33.078125 145.75 33.898438 145.261719 34.742188 144.816406 C 35.589844 144.367188 36.457031 143.964844 37.34375 143.609375 C 38.230469 143.25 39.132812 142.941406 40.054688 142.679688 C 40.972656 142.414062 41.90625 142.203125 42.847656 142.035156 C 43.789062 141.871094 44.738281 141.753906 45.691406 141.6875 C 46.644531 141.617188 47.601562 141.601562 48.558594 141.632812 C 79.566406 141.484375 110.578125 141.4375 141.589844 141.484375 C 141.707031 143.195312 141.9375 144.890625 142.273438 146.574219 C 142.609375 148.253906 143.050781 149.910156 143.601562 151.535156 C 144.148438 153.160156 144.796875 154.742188 145.546875 156.285156 C 146.296875 157.824219 147.144531 159.3125 148.085938 160.746094 C 149.023438 162.179688 150.054688 163.550781 151.167969 164.851562 C 152.285156 166.152344 153.476562 167.378906 154.75 168.53125 C 156.019531 169.679688 157.359375 170.742188 158.769531 171.722656 C 160.175781 172.699219 161.640625 173.585938 163.164062 174.375 C 166.378906 175.964844 169.734375 177.164062 173.230469 177.972656 C 176.722656 178.777344 180.265625 179.167969 183.851562 179.144531 C 189.355469 179.195312 194.859375 179.242188 200.363281 179.242188 C 206.949219 179.339844 213.585938 179.339844 220.171875 179.242188 C 220.316406 203.726562 220.316406 228.226562 220.171875 252.742188 Z M 354.972656 136.617188 C 355.023438 137.574219 355.023438 138.527344 354.972656 139.484375 C 354.921875 140.4375 354.820312 141.386719 354.671875 142.332031 C 354.523438 143.277344 354.328125 144.210938 354.082031 145.132812 C 353.835938 146.058594 353.539062 146.964844 353.199219 147.859375 C 352.859375 148.753906 352.472656 149.625 352.042969 150.476562 C 351.609375 151.332031 351.136719 152.160156 350.617188 152.964844 C 350.101562 153.765625 349.542969 154.542969 348.945312 155.289062 C 348.347656 156.03125 347.710938 156.746094 347.039062 157.425781 C 346.367188 158.105469 345.660156 158.746094 344.921875 159.351562 C 344.183594 159.960938 343.414062 160.523438 342.617188 161.050781 C 341.816406 161.578125 340.996094 162.058594 340.148438 162.5 C 339.296875 162.941406 338.429688 163.335938 337.539062 163.6875 C 336.652344 164.035156 335.746094 164.339844 334.824219 164.59375 C 333.902344 164.851562 332.972656 165.058594 332.03125 165.214844 C 331.085938 165.375 330.140625 165.484375 329.183594 165.542969 C 328.230469 165.605469 327.277344 165.613281 326.324219 165.574219 C 321.261719 165.675781 316.148438 165.773438 311.085938 165.574219 C 309.765625 165.382812 308.457031 165.464844 307.167969 165.816406 C 305.878906 166.164062 304.710938 166.757812 303.667969 167.589844 C 302.683594 168.730469 301.96875 170.019531 301.515625 171.453125 C 301.0625 172.886719 300.910156 174.355469 301.0625 175.851562 C 301.308594 195.613281 301.898438 213.65625 301.996094 217.542969 C 293.21875 210.179688 285.15625 202.101562 277.816406 193.304688 C 271.378906 185.488281 263.464844 178.949219 256.4375 171.671875 C 255.511719 170.628906 254.476562 169.703125 253.339844 168.894531 C 252.203125 168.082031 250.988281 167.410156 249.699219 166.875 C 248.410156 166.335938 247.078125 165.953125 245.703125 165.714844 C 244.328125 165.480469 242.941406 165.402344 241.546875 165.476562 C 238.945312 165.527344 236.339844 165.574219 233.734375 165.574219 C 229.066406 165.625 224.445312 165.675781 219.777344 165.675781 C 207.835938 165.722656 195.894531 165.625 183.949219 165.574219 C 167.929688 165.429688 157.214844 156.382812 155.25 141.484375 C 154.992188 139.808594 154.859375 138.121094 154.855469 136.421875 L 154.855469 127.71875 C 154.757812 103.238281 154.710938 78.753906 154.855469 54.269531 C 154.796875 53.316406 154.789062 52.359375 154.828125 51.402344 C 154.867188 50.445312 154.957031 49.496094 155.097656 48.546875 C 155.238281 47.601562 155.429688 46.664062 155.667969 45.738281 C 155.90625 44.8125 156.195312 43.898438 156.53125 43.003906 C 156.867188 42.105469 157.246094 41.230469 157.675781 40.375 C 158.101562 39.515625 158.574219 38.683594 159.085938 37.878906 C 159.601562 37.070312 160.15625 36.292969 160.753906 35.546875 C 161.351562 34.796875 161.984375 34.082031 162.65625 33.402344 C 163.328125 32.71875 164.035156 32.074219 164.773438 31.46875 C 165.515625 30.859375 166.285156 30.292969 167.082031 29.769531 C 167.882812 29.242188 168.707031 28.761719 169.558594 28.320312 C 170.410156 27.882812 171.277344 27.488281 172.171875 27.140625 C 173.0625 26.792969 173.96875 26.492188 174.894531 26.242188 C 175.816406 25.988281 176.75 25.785156 177.695312 25.632812 C 178.636719 25.480469 179.589844 25.375 180.542969 25.324219 C 181.5 25.269531 182.453125 25.265625 183.410156 25.3125 C 231.082031 25.066406 278.785156 25.066406 326.519531 25.3125 C 327.476562 25.28125 328.429688 25.296875 329.382812 25.367188 C 330.339844 25.433594 331.285156 25.550781 332.230469 25.714844 C 333.171875 25.882812 334.101562 26.097656 335.023438 26.359375 C 335.941406 26.621094 336.84375 26.929688 337.734375 27.289062 C 338.621094 27.644531 339.488281 28.046875 340.332031 28.496094 C 341.179688 28.941406 342 29.433594 342.792969 29.964844 C 343.589844 30.496094 344.355469 31.070312 345.089844 31.683594 C 345.824219 32.292969 346.527344 32.941406 347.191406 33.628906 C 347.859375 34.3125 348.492188 35.03125 349.085938 35.78125 C 349.675781 36.535156 350.230469 37.3125 350.742188 38.121094 C 351.253906 38.929688 351.722656 39.761719 352.148438 40.621094 C 352.574219 41.476562 352.953125 42.355469 353.285156 43.25 C 353.621094 44.148438 353.90625 45.058594 354.144531 45.984375 C 354.386719 46.914062 354.574219 47.847656 354.71875 48.796875 C 354.859375 49.742188 354.953125 50.691406 354.996094 51.648438 C 355.039062 52.605469 355.03125 53.5625 354.972656 54.515625 C 355.121094 81.898438 355.121094 109.265625 354.972656 136.617188 Z M 325.582031 77.726562 L 186.316406 77.726562 C 185.832031 77.726562 185.351562 77.679688 184.875 77.585938 C 184.402344 77.488281 183.941406 77.351562 183.492188 77.164062 C 183.046875 76.980469 182.621094 76.753906 182.21875 76.484375 C 181.816406 76.214844 181.445312 75.910156 181.101562 75.566406 C 180.761719 75.222656 180.453125 74.851562 180.183594 74.449219 C 179.917969 74.046875 179.6875 73.621094 179.503906 73.171875 C 179.320312 72.726562 179.179688 72.265625 179.085938 71.789062 C 178.988281 71.316406 178.941406 70.835938 178.941406 70.351562 C 178.941406 69.867188 178.988281 69.386719 179.085938 68.914062 C 179.179688 68.4375 179.320312 67.976562 179.503906 67.53125 C 179.6875 67.082031 179.917969 66.65625 180.183594 66.253906 C 180.453125 65.851562 180.761719 65.480469 181.101562 65.136719 C 181.445312 64.792969 181.816406 64.488281 182.21875 64.21875 C 182.621094 63.949219 183.046875 63.722656 183.492188 63.539062 C 183.941406 63.351562 184.402344 63.214844 184.875 63.117188 C 185.351562 63.023438 185.832031 62.976562 186.316406 62.976562 L 325.582031 62.976562 C 326.0625 62.976562 326.542969 63.023438 327.019531 63.117188 C 327.492188 63.214844 327.953125 63.351562 328.402344 63.539062 C 328.847656 63.722656 329.273438 63.949219 329.675781 64.21875 C 330.078125 64.488281 330.449219 64.792969 330.792969 65.136719 C 331.136719 65.480469 331.441406 65.851562 331.710938 66.253906 C 331.980469 66.65625 332.207031 67.082031 332.390625 67.53125 C 332.574219 67.976562 332.714844 68.4375 332.808594 68.914062 C 332.90625 69.386719 332.953125 69.867188 332.953125 70.351562 C 332.953125 70.835938 332.90625 71.316406 332.808594 71.789062 C 332.714844 72.265625 332.574219 72.726562 332.390625 73.171875 C 332.207031 73.621094 331.980469 74.046875 331.710938 74.449219 C 331.441406 74.851562 331.136719 75.222656 330.792969 75.566406 C 330.449219 75.910156 330.078125 76.214844 329.675781 76.484375 C 329.273438 76.753906 328.847656 76.980469 328.402344 77.164062 C 327.953125 77.351562 327.492188 77.488281 327.019531 77.585938 C 326.542969 77.679688 326.0625 77.726562 325.582031 77.726562 Z M 275.839844 116.820312 L 190.582031 116.820312 C 190.097656 116.820312 189.617188 116.773438 189.140625 116.679688 C 188.667969 116.585938 188.207031 116.445312 187.757812 116.257812 C 187.3125 116.074219 186.886719 115.847656 186.484375 115.578125 C 186.082031 115.308594 185.710938 115.003906 185.367188 114.660156 C 185.027344 114.316406 184.71875 113.945312 184.449219 113.542969 C 184.183594 113.140625 183.953125 112.714844 183.769531 112.269531 C 183.585938 111.820312 183.445312 111.359375 183.351562 110.882812 C 183.257812 110.410156 183.207031 109.929688 183.207031 109.445312 C 183.207031 108.960938 183.257812 108.480469 183.351562 108.007812 C 183.445312 107.53125 183.585938 107.070312 183.769531 106.625 C 183.953125 106.175781 184.183594 105.75 184.449219 105.347656 C 184.71875 104.945312 185.027344 104.574219 185.367188 104.230469 C 185.710938 103.890625 186.082031 103.582031 186.484375 103.3125 C 186.886719 103.046875 187.3125 102.816406 187.757812 102.632812 C 188.207031 102.449219 188.667969 102.308594 189.140625 102.214844 C 189.617188 102.117188 190.097656 102.070312 190.582031 102.070312 L 275.839844 102.070312 C 276.324219 102.070312 276.804688 102.117188 277.28125 102.214844 C 277.753906 102.308594 278.214844 102.449219 278.664062 102.632812 C 279.109375 102.816406 279.535156 103.046875 279.9375 103.3125 C 280.339844 103.582031 280.710938 103.890625 281.054688 104.230469 C 281.394531 104.574219 281.703125 104.945312 281.96875 105.347656 C 282.238281 105.75 282.464844 106.175781 282.652344 106.625 C 282.835938 107.070312 282.976562 107.53125 283.070312 108.007812 C 283.164062 108.480469 283.210938 108.960938 283.214844 109.445312 C 283.210938 109.929688 283.164062 110.410156 283.070312 110.882812 C 282.976562 111.359375 282.835938 111.820312 282.652344 112.269531 C 282.464844 112.714844 282.238281 113.140625 281.96875 113.542969 C 281.703125 113.945312 281.394531 114.316406 281.054688 114.660156 C 280.710938 115.003906 280.339844 115.308594 279.9375 115.578125 C 279.535156 115.847656 279.109375 116.074219 278.664062 116.257812 C 278.214844 116.445312 277.753906 116.585938 277.28125 116.679688 C 276.804688 116.773438 276.324219 116.820312 275.839844 116.820312 Z M 188.734375 238.296875 L 49.464844 238.296875 C 48.984375 238.296875 48.503906 238.25 48.027344 238.15625 C 47.554688 238.0625 47.09375 237.921875 46.644531 237.738281 C 46.199219 237.550781 45.773438 237.324219 45.371094 237.054688 C 44.96875 236.785156 44.597656 236.480469 44.253906 236.136719 C 43.910156 235.796875 43.605469 235.421875 43.335938 235.019531 C 43.070312 234.617188 42.839844 234.191406 42.65625 233.746094 C 42.472656 233.296875 42.332031 232.835938 42.238281 232.363281 C 42.140625 231.886719 42.09375 231.40625 42.09375 230.921875 C 42.09375 230.4375 42.140625 229.960938 42.238281 229.484375 C 42.332031 229.007812 42.472656 228.546875 42.65625 228.101562 C 42.839844 227.652344 43.070312 227.230469 43.335938 226.828125 C 43.605469 226.421875 43.910156 226.050781 44.253906 225.707031 C 44.597656 225.367188 44.96875 225.0625 45.371094 224.792969 C 45.773438 224.523438 46.199219 224.296875 46.644531 224.109375 C 47.09375 223.925781 47.554688 223.785156 48.027344 223.691406 C 48.503906 223.597656 48.984375 223.546875 49.464844 223.546875 L 188.734375 223.546875 C 189.214844 223.546875 189.695312 223.597656 190.171875 223.691406 C 190.644531 223.785156 191.105469 223.925781 191.554688 224.109375 C 192 224.296875 192.425781 224.523438 192.828125 224.792969 C 193.230469 225.0625 193.601562 225.367188 193.945312 225.707031 C 194.289062 226.050781 194.59375 226.421875 194.863281 226.828125 C 195.128906 227.230469 195.359375 227.652344 195.542969 228.101562 C 195.726562 228.546875 195.867188 229.007812 195.960938 229.484375 C 196.058594 229.960938 196.105469 230.4375 196.105469 230.921875 C 196.105469 231.40625 196.058594 231.886719 195.960938 232.363281 C 195.867188 232.835938 195.726562 233.296875 195.542969 233.746094 C 195.359375 234.191406 195.128906 234.617188 194.863281 235.019531 C 194.59375 235.421875 194.289062 235.796875 193.945312 236.136719 C 193.601562 236.480469 193.230469 236.785156 192.828125 237.054688 C 192.425781 237.324219 192 237.550781 191.554688 237.738281 C 191.105469 237.921875 190.644531 238.0625 190.171875 238.15625 C 189.695312 238.25 189.214844 238.296875 188.734375 238.296875 Z M 50.0625 183.960938 L 135.320312 183.960938 C 135.804688 183.960938 136.285156 184.011719 136.761719 184.105469 C 137.234375 184.199219 137.695312 184.339844 138.144531 184.523438 C 138.589844 184.710938 139.015625 184.9375 139.417969 185.207031 C 139.820312 185.472656 140.191406 185.78125 140.535156 186.121094 C 140.878906 186.464844 141.183594 186.835938 141.453125 187.238281 C 141.71875 187.644531 141.949219 188.066406 142.132812 188.515625 C 142.316406 188.960938 142.457031 189.421875 142.550781 189.898438 C 142.648438 190.375 142.695312 190.851562 142.695312 191.335938 C 142.695312 191.820312 142.648438 192.300781 142.550781 192.777344 C 142.457031 193.25 142.316406 193.710938 142.132812 194.160156 C 141.949219 194.605469 141.71875 195.03125 141.453125 195.433594 C 141.183594 195.835938 140.878906 196.210938 140.535156 196.550781 C 140.191406 196.894531 139.820312 197.199219 139.417969 197.46875 C 139.015625 197.738281 138.589844 197.964844 138.144531 198.148438 C 137.695312 198.335938 137.234375 198.476562 136.761719 198.570312 C 136.285156 198.664062 135.804688 198.710938 135.320312 198.710938 L 50.0625 198.710938 C 49.578125 198.710938 49.097656 198.664062 48.625 198.570312 C 48.148438 198.476562 47.6875 198.335938 47.242188 198.148438 C 46.792969 197.964844 46.367188 197.738281 45.964844 197.46875 C 45.5625 197.199219 45.191406 196.894531 44.847656 196.550781 C 44.507812 196.210938 44.199219 195.835938 43.933594 195.433594 C 43.664062 195.03125 43.4375 194.605469 43.25 194.160156 C 43.066406 193.710938 42.925781 193.25 42.832031 192.777344 C 42.738281 192.300781 42.691406 191.820312 42.691406 191.335938 C 42.691406 190.851562 42.738281 190.375 42.832031 189.898438 C 42.925781 189.421875 43.066406 188.960938 43.25 188.515625 C 43.4375 188.066406 43.664062 187.644531 43.933594 187.238281 C 44.199219 186.835938 44.507812 186.464844 44.847656 186.121094 C 45.191406 185.78125 45.5625 185.472656 45.964844 185.207031 C 46.367188 184.9375 46.792969 184.710938 47.242188 184.523438 C 47.6875 184.339844 48.148438 184.199219 48.625 184.105469 C 49.097656 184.011719 49.578125 183.960938 50.0625 183.960938 Z M 50.0625 183.960938 " fill-opacity="1" fill-rule="nonzero"/></g></svg>